<svg xmlns="http://www.w3.org/2000/svg" viewBox="0 0 22 22" width="22" height="22">
	<style>
		tspan { white-space:pre }
		.shp0 { opacity: 0.702;fill: #e35028 } 
	</style>
	<path id="Rounded Rectangle 1" class="shp0" d="M19.49 5.34L5.34 19.48C4.56 20.27 3.3 20.27 2.51 19.48C1.73 18.7 1.73 17.44 2.51 16.66L16.66 2.51C17.44 1.73 18.7 1.73 19.49 2.51C20.27 3.29 20.27 4.56 19.49 5.34ZM5.34 2.51L19.49 16.66C20.27 17.44 20.27 18.7 19.49 19.48C18.7 20.27 17.44 20.27 16.66 19.48L2.51 5.34C1.73 4.56 1.73 3.29 2.51 2.51C3.3 1.73 4.56 1.73 5.34 2.51Z" />
</svg>